<svg id="Capa_1" data-name="Capa 1" xmlns="http://www.w3.org/2000/svg" viewBox="0 0 280.65 280.65"><defs><style>.cls-1{fill:#ff0589;}.cls-2{fill:#fff;}</style></defs><circle class="cls-1" cx="140.32" cy="140.32" r="137.52"/><path class="cls-2" d="M55.07,226.71H54.4c.07-.44.11-.89.2-1.32q4.76-21.63,9.54-43.25a5.51,5.51,0,0,0-.5-4c-9.32-18.3-12.08-37.53-7.41-57.58C69.14,65.06,132,37.14,182,64.65c32.78,18.06,50.39,55.53,43,91.55-11.2,54.9-71.58,84.82-122,60.5a4.9,4.9,0,0,0-3-.34q-16.28,3.58-32.51,7.35C63.32,224.66,59.2,225.71,55.07,226.71Zm17-17.91,1.2-.24c9.3-2.11,18.61-4.2,27.9-6.36a5.5,5.5,0,0,1,4.28.54,69.28,69.28,0,0,0,29.13,8.71c19.13,1.34,36.45-3.7,51.38-15.8,17.77-14.4,27-33.23,27.12-56.14a67.31,67.31,0,0,0-15.94-44.62c-18.74-22.5-42.87-31.32-71.58-25.8-21.5,4.13-37.79,16.4-48.72,35.41a68.62,68.62,0,0,0-8.68,43.82A74.3,74.3,0,0,0,78,176.42a4.11,4.11,0,0,1,.56,2.65c-1.29,6.26-2.71,12.5-4.09,18.75C73.66,201.42,72.88,205,72.06,208.8Z"/><path class="cls-2" d="M115.13,102c3.55-.82,5.38,1.17,6.61,4.31,1.8,4.59,3.71,9.15,5.63,13.7a3.72,3.72,0,0,1-.13,3.84c-1.44,2-2.93,4-4.55,5.79-1.89,2.15-2,2.67-.51,5.16a54,54,0,0,0,26.62,22.86c2.07.84,2.89.71,4.29-1q3-3.55,5.84-7.2c1.46-1.84,2.22-2.28,4.32-1.31q8.33,3.83,16.5,8a3.2,3.2,0,0,1,1.3,2.47c-.06,5.32-1.49,10-6.19,13.29-6.15,4.36-12.67,4.75-19.75,3.06-18.36-4.38-32.46-14.85-43.38-30-3.81-5.28-7.71-10.53-9.6-16.91-2.62-8.84-1.08-16.73,5.42-23.52A8.2,8.2,0,0,1,115.13,102Z"/></svg>