<svg version="1.2" xmlns="http://www.w3.org/2000/svg" viewBox="0 0 410 694" width="410" height="694"><style>.a{fill:none;stroke:#ff0589;stroke-miterlimit:10}.b{fill:#ff0589}.c{fill:#f3eee6;stroke:#ff0589;stroke-miterlimit:10}.d{fill:#00abf8}.e{fill:#007ac6}.f{fill:#da0373}.g{fill:#ff8111}.h{fill:#e05400}.i{fill:#ffc100}.j{fill:#d45cb8}.k{fill:#072277}.l{fill:#78491b}.m{fill:#00a700}.n{fill:#7c338e}</style><path class="a" d="m206 631c-107.9 0-195.4-87.5-195.4-195.4v-238.3c0-108 87.5-195.5 195.4-195.5 108 0 195.5 87.5 195.5 195.5v238.3c0 107.9-87.5 195.4-195.5 195.4z"/><path class="b" d="m409.6 457.5c0 6.5-5.3 11.7-11.7 11.7-6.5 0-11.7-5.2-11.7-11.7 0-6.4 5.2-11.7 11.7-11.7 6.4 0 11.7 5.3 11.7 11.7z"/><path class="b" d="m23.8 181.1c0 6.5-5.2 11.7-11.7 11.7-6.4 0-11.7-5.2-11.7-11.7 0-6.4 5.3-11.7 11.7-11.7 6.5 0 11.7 5.3 11.7 11.7z"/><path class="c" d="m311.1 587.3c0 58.3-47.2 105.6-105.6 105.6-58.3 0-105.6-47.3-105.6-105.6 0-58.3 47.3-105.6 105.6-105.6 58.4 0 105.6 47.3 105.6 105.6z"/><path class="d" d="m204.3 601.5c-1.4-5.9-5.4-9.9-11.9-11.9 5.9-2 9.7-6.1 11.9-11.9 1.5 6.2 5.7 9.9 11.9 11.9-6.3 2.9-10.4 6.9-11.9 11.9z"/><path class="e" d="m204.4 595q-2.1-3.3-5.8-5.5 3.1-2.2 5.3-5.3 2.2 3.4 6 5.7-3.3 2.3-5.5 5.1z"/><path class="d" d="m151.3 614.3c0 0-17.3 2.6-19.3 9.1-2 6.4 20.4-5.5 20.4-5.5z"/><path class="e" d="m152.6 616.2c0 0-15.8 1.6-16.6 5.4-0.7 3.9 16.6-5.4 16.6-5.4z"/><path class="b" d="m152.4 617.9c0 0-19.4 8-20.1 12.8-0.7 4.9 16.1-1.7 21.2-10.8z"/><path class="f" d="m153.3 618.9c0 0-17.9 6.8-15.1 9.7 2.8 3 15.1-9.7 15.1-9.7z"/><path class="g" d="m153.4 620.7c0 0-12.8 11-11.9 15.4 1 4.4 9.9-1 13.8-14.3z"/><path class="h" d="m153.5 621.5c0 0-10.1 9.8-7.8 12.1 2.8 2.9 7.8-12.1 7.8-12.1z"/><path class="i" d="m181.5 559.7c0 0-6.9-8-16.4-1.6-9.5 6.5-5.4 17.8-4.6 23.7 0.7 5.8-6.5 28.6-9.2 32.5l1 8.2c0 0 9.5 2.6 22.4-8.4 12.8-11 9.2-30.1 9-33.1-0.1-3-1.9-11.2-0.7-14.5 1.4-3.9-1.5-6.8-1.5-6.8z"/><path class="g" d="m178.8 558.8c0 0-1.1 5.7 4.7 4.9 0 0 3.9-8.6 19.1-12 0 0-12.7-1.9-23.8 7.1z"/><path class="j" d="m169.9 586.9c-11.6 14.3-7.4 34.3-7.4 34.3q0 0.1 0.1 0.2c3.4-1.3 7.5-3.5 12.1-7.3 12.8-11 9.2-30.1 9-33.1 0-1.2-0.3-3.4-0.6-5.8-1.3 0.1-5 1.6-13.2 11.7z"/><path class="k" d="m179.3 590.8c-6.9 8.4-8.2 18.9-8.2 26q1.7-1.2 3.6-2.7c9.9-8.6 10-22 9.4-28.9-1.4 1.5-3 3.3-4.8 5.6z"/><path class="g" d="m155.7 558.8c1.2-2.8 7-2.5 7-2.5v-1c5.2-1.2 5.1 2.2 5.1 2.2-5.4 4.9-12.1 1.3-12.1 1.3z"/><path class="l" d="m173.9 561.2c-0.2-0.7-0.9-1.2-1.7-1-0.7 0.1-1.2 0.9-1 1.6 0.1 0.8 0.9 1.2 1.6 1.1 0.8-0.2 1.2-0.9 1.1-1.7z"/><path class="h" d="m202.6 551.7q-1.6 0.2-3.2 0.6-1.6 0.3-3.1 0.7c-2.1 0.6-4.2 1.3-6.1 2.1q-1.5 0.6-3 1.4-1.4 0.8-2.7 1.7c-1.8 1.2-3.4 2.6-4.8 4.3 0.6-0.9 1.3-1.7 2.1-2.5q1.1-1.2 2.4-2.2c1.8-1.3 3.7-2.3 5.7-3.2q3.1-1.2 6.3-2c2.1-0.4 4.3-0.8 6.4-0.9z"/><path class="f" d="m170.9 556.3c0 0 0.9-3.3-4.4-3.5l-0.2 1c0 0-5.6-1.7-7.4 0.7 0 0 5.5 5.1 12 1.8z"/><path class="d" d="m175.5 556.1c0 0-0.9-6-5.9-7.4l2 3.9c0 0-5-3-7.4-1.2 0 0 4.1 6.4 11.3 4.7z"/><path class="b" d="m163.1 594c-4.6 1.2-19.4-1.2-19.4-1.2-2.7 6.5 5.7 7.8 5.7 7.8 0 0 12.6 2.2 17-1-0.9-1.4-2-3.2-3.3-5.6z"/><path class="m" d="m149.4 600.6c0 0 0.6 6.1 7 7.8 4.5 1.1 9.5-0.4 12-5.8-0.5-0.7-1.2-1.7-2-3-4.4 3.2-17 1-17 1z"/><path class="m" d="m157.8 583.6q-0.4-1-0.9-1.9c-2.6 1.4-20.9-9.8-20.9-9.8-2.8 6.4 2.8 10.5 2.8 10.5 0 0 16.3 7.8 22.2 7.6q-1.5-2.8-3.2-6.4z"/><path class="b" d="m147.1 560.8q-0.7-0.9-1.1-1.7c-3.4-6.1-8.5-7.8-10.5-4.6-2.1 3.2 0.2 7.9 0.2 7.9 0 0 12.1 10.6 17.7 11.9-2.4-5.3-4.6-9.9-6.3-13.5z"/><path class="d" d="m156.9 581.7q-1.8-3.9-3.5-7.4c-5.6-1.3-17.7-11.9-17.7-11.9-4.5 4.8 0.3 9.5 0.3 9.5 0 0 18.3 11.2 20.9 9.8z"/><path class="n" d="m163.1 594q-1-1.8-2.1-4c-5.9 0.2-22.2-7.6-22.2-7.6-2.8 6.7 4.9 10.4 4.9 10.4 0 0 14.8 2.4 19.4 1.2z"/><path class="f" d="m152.9 572.2c-8.1-5.3-14.3-13.8-14.4-13.9l0.4-0.3c0.1 0.1 6.3 8.4 14.3 13.8z"/><path class="e" d="m156.7 578.9c-9.2-3.1-17.4-9.7-17.5-9.7l0.4-0.5c0 0.1 8.2 6.6 17.3 9.7z"/><path class="m" d="m160 586q-0.1 0-0.1 0c-9.6-1.3-19-6-19.1-6.1-0.1-0.1-0.2-0.2-0.1-0.4 0.1-0.1 0.3-0.2 0.4-0.1 0.1 0.1 9.4 4.8 18.9 6 0.1 0 0.3 0.2 0.2 0.3 0 0.2-0.1 0.3-0.2 0.3z"/><path class="n" d="m162 592c-9 0-17.7-2.7-17.8-2.7-0.1 0-0.2-0.2-0.2-0.3 0.1-0.2 0.2-0.3 0.4-0.2 0.1 0 10 3.1 19.6 2.6 0.2 0 0.3 0.1 0.3 0.3 0 0.1-0.1 0.3-0.2 0.3q-1.1 0-2.1 0z"/><path class="f" d="m152.9 597.4c-3 0-5.1-0.2-5.1-0.2-0.2 0-0.3-0.1-0.3-0.3 0.1-0.1 0.2-0.2 0.4-0.2 0.1 0 10.4 0.9 19.7-1.5 0.2 0 0.3 0 0.4 0.2 0 0.1-0.1 0.3-0.2 0.3-5.3 1.4-11 1.7-14.9 1.7z"/><path class="m" d="m158.3 605.4c-2 0-3.5-0.5-3.5-0.5-0.2 0-0.3-0.2-0.2-0.3 0-0.2 0.2-0.3 0.3-0.2 0.1 0 7.7 2.3 12.2-4 0.1-0.1 0.3-0.1 0.4 0 0.2 0 0.2 0.2 0.1 0.4-2.8 3.7-6.6 4.6-9.3 4.6z"/><path class="g" d="m147.1 560.8c1.7 3.6 3.9 8.2 6.3 13.5q0.1 0 0.2 0-0.1 0-0.2 0 1.7 3.5 3.5 7.4 0.1-0.1 0.1-0.1 0 0-0.1 0.1 0.5 0.9 0.9 1.9 1.7 3.6 3.2 6.4 0 0 0.1 0-0.1 0-0.1 0c2.2 4.4 4 7.5 5.4 9.6q0.1-0.1 0.2-0.1-0.1 0-0.2 0.1c0.8 1.3 1.5 2.3 2 3 1.1-2.3 1.7-5.1 1.7-8.8 0-11.4-17.5-26-23-33z"/><path class="h" d="m167.9 599.2c4.7-11.7-15.3-30.3-15.3-30.3z"/><path class="d" d="m259.6 614.3c0 0 17.3 2.6 19.3 9.1 2 6.4-20.5-5.5-20.5-5.5z"/><path class="e" d="m258.3 616.2c0 0 15.7 1.6 16.5 5.4 0.8 3.9-16.5-5.4-16.5-5.4z"/><path class="b" d="m258.4 617.9c0 0 19.4 8 20.1 12.8 0.8 4.9-16.1-1.7-21.2-10.8z"/><path class="f" d="m257.6 618.9c0 0 17.9 6.8 15.1 9.7-2.9 3-15.1-9.7-15.1-9.7z"/><path class="g" d="m257.4 620.7c0 0 12.9 11 11.9 15.4-1 4.4-9.9-1-13.7-14.3z"/><path class="h" d="m257.3 621.5c0 0 10.1 9.8 7.9 12.1-2.8 2.9-7.9-12.1-7.9-12.1z"/><path class="i" d="m229.3 559.7c0 0 7-8 16.4-1.6 9.5 6.5 5.4 17.8 4.7 23.7-0.8 5.8 6.5 28.6 9.2 32.5l-1 8.2c0 0-9.6 2.6-22.4-8.4-12.9-11-9.2-30.1-9.1-33.1 0.1-3 1.9-11.2 0.7-14.5-1.3-3.9 1.5-6.8 1.5-6.8z"/><path class="g" d="m232.1 558.8c0 0 1.1 5.7-4.8 4.9 0 0-3.9-8.6-19.1-12 0 0 12.8-1.9 23.9 7.1z"/><path class="j" d="m240.9 586.9c11.6 14.3 7.5 34.3 7.5 34.3q-0.1 0.1-0.1 0.2c-3.5-1.3-7.6-3.5-12.1-7.3-12.9-11-9.2-30.1-9.1-33.1 0-1.2 0.3-3.4 0.7-5.8 1.3 0.1 4.9 1.6 13.1 11.7z"/><path class="k" d="m231.6 590.8c6.8 8.4 8.2 18.9 8.1 26q-1.7-1.2-3.5-2.7c-10-8.6-10-22-9.5-28.9 1.4 1.5 3 3.3 4.9 5.6z"/><path class="g" d="m243 557.5c0 0 0-3.4 5.1-2.2v1c0 0 5.8-0.3 7 2.5 0 0-6.6 3.6-12.1-1.3z"/><path class="l" d="m237 561.2c0.1-0.7 0.9-1.2 1.6-1 0.8 0.1 1.2 0.9 1.1 1.6-0.2 0.8-0.9 1.2-1.7 1.1-0.7-0.2-1.2-0.9-1-1.7z"/><path class="h" d="m208.2 551.7c2.2 0.1 4.3 0.5 6.5 0.9q3.2 0.8 6.2 2c2 0.9 4 1.9 5.7 3.2q1.3 1 2.5 2.2c0.7 0.8 1.4 1.6 2 2.5-1.4-1.7-3-3.1-4.7-4.3q-1.4-0.9-2.8-1.7-1.4-0.8-2.9-1.4c-2-0.8-4.1-1.5-6.1-2.1q-1.6-0.4-3.2-0.7-1.6-0.4-3.2-0.6z"/><path class="f" d="m239.9 556.3c0 0-0.8-3.3 4.4-3.5l0.2 1c0 0 5.6-1.7 7.5 0.7 0 0-5.5 5.1-12.1 1.8z"/><path class="d" d="m235.3 556.1c0 0 0.9-6 6-7.4l-2.1 3.9c0 0 5-3 7.4-1.2 0 0-4.1 6.4-11.3 4.7z"/><path class="b" d="m247.7 594c4.6 1.2 19.5-1.2 19.5-1.2 2.6 6.5-5.8 7.8-5.8 7.8 0 0-12.6 2.2-17-1 0.9-1.4 2-3.2 3.3-5.6z"/><path class="m" d="m261.4 600.6c0 0-0.5 6.1-6.9 7.8-4.5 1.1-9.6-0.4-12.1-5.8 0.5-0.7 1.2-1.7 2-3 4.4 3.2 17 1 17 1z"/><path class="m" d="m253 583.6q0.5-1 0.9-1.9c2.7 1.4 21-9.8 21-9.8 2.8 6.4-2.9 10.5-2.9 10.5 0 0-16.3 7.8-22.2 7.6q1.5-2.8 3.2-6.4z"/><path class="b" d="m263.7 560.8q0.7-0.9 1.1-1.7c3.4-6.1 8.5-7.8 10.6-4.6 2 3.2-0.2 7.9-0.2 7.9 0 0-12.1 10.6-17.8 11.9 2.5-5.3 4.6-9.9 6.3-13.5z"/><path class="d" d="m253.9 581.7q1.8-3.9 3.5-7.4c5.7-1.3 17.8-11.9 17.8-11.9 4.4 4.8-0.3 9.5-0.3 9.5 0 0-18.3 11.2-21 9.8z"/><path class="n" d="m247.7 594q1-1.8 2.1-4c5.9 0.2 22.2-7.6 22.2-7.6 2.9 6.7-4.8 10.4-4.8 10.4 0 0-14.9 2.4-19.5 1.2z"/><path class="f" d="m258 572.2l-0.3-0.4c7.9-5.4 14.1-13.7 14.2-13.8l0.4 0.3c0 0.1-6.3 8.6-14.3 13.9z"/><path class="e" d="m254.2 578.9l-0.2-0.5c9.1-3.1 17.2-9.6 17.3-9.7l0.3 0.5c-0.1 0-8.3 6.6-17.4 9.7z"/><path class="m" d="m250.9 586c-0.2 0-0.3-0.1-0.3-0.3 0-0.1 0.1-0.3 0.2-0.3 9.6-1.2 18.9-5.9 18.9-6 0.2-0.1 0.4 0 0.4 0.1 0.1 0.2 0 0.3-0.1 0.4-0.1 0.1-9.5 4.8-19.1 6.1q0 0 0 0z"/><path class="n" d="m248.9 592q-1.1 0-2.1 0c-0.2 0-0.3-0.2-0.3-0.3 0-0.2 0.1-0.3 0.3-0.3 9.6 0.5 19.6-2.6 19.7-2.6 0.1-0.1 0.3 0 0.3 0.2 0.1 0.1 0 0.3-0.2 0.3-0.1 0-8.7 2.7-17.7 2.7z"/><path class="f" d="m257.9 597.4c-3.9 0-9.5-0.3-14.8-1.7-0.2 0-0.3-0.2-0.2-0.3 0-0.2 0.2-0.2 0.3-0.2 9.3 2.4 19.7 1.5 19.8 1.5 0.1 0 0.3 0.1 0.3 0.2 0 0.2-0.1 0.3-0.3 0.3 0 0-2 0.2-5.1 0.2z"/><path class="m" d="m252.5 605.4c-2.7 0-6.5-0.9-9.3-4.6-0.1-0.2 0-0.4 0.1-0.4 0.1-0.1 0.3-0.1 0.4 0 4.6 6.3 12.1 4 12.2 4 0.1-0.1 0.3 0 0.4 0.2 0 0.1-0.1 0.3-0.2 0.3-0.1 0-1.5 0.5-3.6 0.5z"/><path class="g" d="m263.7 560.8c-1.7 3.6-3.8 8.2-6.3 13.5q-0.1 0-0.2 0 0.1 0 0.2 0-1.7 3.5-3.5 7.4-0.1-0.1-0.1-0.1 0 0 0.1 0.1-0.4 0.9-0.9 1.9-1.7 3.6-3.2 6.4 0 0-0.1 0 0.1 0 0.1 0c-2.2 4.4-4 7.5-5.4 9.6q0-0.1-0.1-0.1 0.1 0 0.1 0.1c-0.8 1.3-1.5 2.3-2 3-1.1-2.3-1.7-5.1-1.7-8.8 0-11.4 17.5-26 23-33z"/><path class="h" d="m242.9 599.2c-4.6-11.7 15.3-30.3 15.3-30.3z"/><path class="b" d="m194.2 583.1c0 0 7.9-4.4 9.9-13.4 0 0 4.7 11.6 10.8 13.2 0 0 4.4-19.9-6.3-22.1-10.6-2.2-18.5 2.9-14.4 22.3z"/></svg>