<svg version="1.2" xmlns="http://www.w3.org/2000/svg" viewBox="0 0 133 102" width="133" height="102"><style>.a{fill:#ff0589}.b{fill:#fff}</style><path class="a" d="m99.5 34.1c0 18.4-14.9 33.3-33.4 33.3-18.4 0-33.3-14.9-33.3-33.3 0-18.5 14.9-33.4 33.3-33.4 18.5 0 33.4 14.9 33.4 33.4z"/><path class="b" d="m42.5 44.8c0.2-0.4 0.6-0.6 1.1-0.6 1.3 0 2.6 0 3.9 0 0.6 0 1 0.4 0.9 0.9 0 0.4-0.3 0.7-0.9 0.7-1.3 0-2.6 0-3.9 0-0.5 0.1-0.9-0.1-1.1-0.5q0-0.3 0-0.5z"/><path fill-rule="evenodd" class="b" d="m49.9 40.7c-1.2 0-2.3 0-3.5 0-0.6 0-0.9-0.3-0.9-0.8 0-0.5 0.3-0.8 0.9-0.8q1.7 0 3.5 0 0-0.3 0-0.5 0-4.1 0-8.2c0-0.5 0.1-0.8 0.5-1.1 1.3-1.1 2.6-2.2 3.9-3.2 0.3-0.2 0.4-0.4 0.4-0.7q-0.1-3-0.1-6.1c0-1.7 1.1-2.7 2.7-2.7q3 0 6.1 0 0.1 0 0.2 0c0.5 0 0.8 0.4 0.8 0.8 0 0.5-0.3 0.8-0.8 0.8q-0.7 0-1.3 0-2.5 0-5 0c-0.7 0-1 0.3-1 1.1q0 6.9 0 13.8c0 0.2 0.1 0.4 0.2 0.5q5.1 3.9 10.1 7.7c0.2 0.1 0.3 0.1 0.5 0q5-3.9 10.1-7.7c0.2-0.1 0.2-0.3 0.2-0.5q0-6.9 0-13.8c0-0.8-0.3-1.1-1-1.1q-3 0-6 0-0.1 0-0.3 0c-0.5 0-0.8-0.3-0.8-0.8 0-0.4 0.3-0.8 0.8-0.8q1.6 0 3.1 0 1.7 0 3.4 0c1.4 0 2.4 1.1 2.4 2.5q0.1 3.2 0 6.4c0 0.2 0.1 0.4 0.3 0.6q2 1.6 4 3.2c0.3 0.3 0.5 0.6 0.5 1q0 9.3 0 18.6c0 1.6-1 2.6-2.6 2.6q-14.4 0-28.7 0c-1.6 0-2.6-1.1-2.6-2.6q0-3.9 0-7.7 0-0.3 0-0.5zm31.1 9.2q-4.9-4.9-9.7-9.8-1.9 1.5-3.9 2.9c-0.4 0.4-0.7 0.4-1.2 0q-1.5-1.1-2.9-2.2c-0.3-0.3-0.6-0.5-0.9-0.6q-4.9 4.8-9.7 9.7c9.4 0 18.9 0 28.3 0zm-20-10.8q-4.7-3.6-9.5-7.2 0 8.4 0 16.6 4.8-4.7 9.5-9.4zm21.2 9.4c0-5.5 0-11 0-16.6q-4.8 3.6-9.5 7.2 4.7 4.7 9.5 9.4zm-0.4-18.4c-1-0.7-1.8-1.4-2.8-2.2 0 0.8 0 1.5 0 2.2 0 0.7 0 1.3 0 2.1 1-0.7 1.9-1.4 2.8-2.1zm-29.9 0c0.9 0.7 1.8 1.4 2.7 2.1 0-0.8 0-1.5 0-2.1 0-0.7 0-1.4 0-2.2-0.9 0.8-1.8 1.5-2.7 2.2z"/><path fill-rule="evenodd" class="b" d="m60.3 28.3c0-3.6 2.9-6.5 6.6-6.5 3.6 0 6.5 2.9 6.5 6.6 0 3.6-3 6.5-6.6 6.5-3.6 0-6.5-3-6.5-6.6zm1.6 0c0 2.7 2.2 4.9 4.9 5 2.7 0 5-2.2 5-4.9 0-2.8-2.2-5-4.9-5-2.8 0-5 2.2-5 4.9z"/><path class="b" d="m67.7 17.4c-0.1 0.5-0.4 0.9-0.9 0.8-0.4 0-0.8-0.4-0.8-0.8 0.1-0.4 0.4-0.8 0.9-0.8 0.4 0.1 0.8 0.4 0.8 0.8z"/><path class="b" d="m66.4 28.5c0.7-0.7 1.3-1.3 1.9-1.9 0.4-0.4 0.9-0.4 1.2-0.1 0.4 0.4 0.3 0.8-0.1 1.3q-1.1 1.1-2.3 2.2c-0.4 0.5-0.9 0.5-1.3 0q-0.7-0.6-1.3-1.2c-0.4-0.4-0.4-0.9 0-1.2 0.3-0.3 0.8-0.3 1.1 0 0.3 0.3 0.5 0.6 0.8 0.9z"/><path class="a" d="m17.7 80.8v3.1q-1.4-1.4-3.1-2-1.7-0.7-3.6-0.7-3.8 0-5.8 2.3-2 2.3-2 6.6 0 4.3 2 6.6 2 2.3 5.8 2.3 1.9 0 3.6-0.7 1.7-0.7 3.1-2.1v3.1q-1.5 1.1-3.3 1.6-1.7 0.5-3.6 0.5-5 0-7.8-3-2.9-3.1-2.9-8.3 0-5.3 2.9-8.3 2.8-3.1 7.8-3.1 2 0 3.7 0.6 1.7 0.5 3.2 1.5zm10.9 5.7q-2.2 0-3.5 1.7-1.2 1.7-1.2 4.6 0 3 1.2 4.7 1.3 1.6 3.5 1.6 2.1 0 3.4-1.7 1.2-1.7 1.2-4.6 0-2.9-1.2-4.6-1.3-1.7-3.4-1.7zm0-2.3q3.5 0 5.5 2.3 2 2.3 2 6.3 0 4-2 6.3-2 2.3-5.5 2.3-3.6 0-5.6-2.3-2-2.3-2-6.3 0-4 2-6.3 2-2.3 5.6-2.3zm25.6 6.9v9.9h-2.7v-9.8q0-2.3-0.9-3.5-0.9-1.2-2.7-1.2-2.2 0-3.5 1.4-1.2 1.4-1.2 3.8v9.3h-2.7v-16.4h2.7v2.5q0.9-1.4 2.2-2.2 1.3-0.7 3.1-0.7 2.8 0 4.2 1.8 1.5 1.7 1.5 5.1zm8.5-6.5h10.1v16.4h-2.7v-14.3h-7.4v14.3h-2.7v-14.3h-2.6v-2.1h2.6v-1.1q0-2.7 1.3-4 1.2-1.3 3.9-1.3h2.7v2.2h-2.6q-1.5 0-2 0.6-0.6 0.6-0.6 2.1zm7.4-2.9v-3.4h2.7v3.4zm17.9 2.7v2.8q-0.5-0.3-1-0.4-0.5-0.1-1.2-0.1-2.3 0-3.5 1.4-1.2 1.5-1.2 4.3v8.6h-2.7v-16.4h2.7v2.6q0.8-1.5 2.2-2.2 1.4-0.8 3.3-0.8 0.3 0 0.6 0.1 0.4 0 0.8 0.1zm15.1 3.4q1-1.8 2.4-2.7 1.4-0.9 3.3-0.9 2.5 0 3.9 1.8 1.4 1.8 1.4 5.1v9.9h-2.7v-9.8q0-2.3-0.8-3.5-0.9-1.1-2.6-1.1-2.1 0-3.3 1.4-1.2 1.4-1.2 3.8v9.2h-2.7v-9.8q0-2.3-0.8-3.5-0.9-1.1-2.6-1.1-2.1 0-3.3 1.4-1.2 1.4-1.2 3.8v9.2h-2.7v-16.4h2.7v2.6q0.9-1.5 2.2-2.2 1.3-0.8 3.1-0.8 1.7 0 3 1 1.3 0.9 1.9 2.6zm26.5 5h-2.6q-3.3 0-4.6 0.7-1.2 0.8-1.2 2.6 0 1.4 0.9 2.3 1 0.8 2.6 0.8 2.2 0 3.6-1.6 1.3-1.6 1.3-4.2zm2.7-1.1v9.4h-2.7v-2.5q-0.9 1.5-2.3 2.2-1.3 0.7-3.3 0.7-2.5 0-4-1.4-1.5-1.5-1.5-3.8 0-2.8 1.8-4.2 1.9-1.4 5.6-1.4h3.7v-0.3q0-1.8-1.2-2.8-1.2-1.1-3.4-1.1-1.4 0-2.8 0.4-1.3 0.3-2.5 1v-2.5q1.5-0.6 2.9-0.9 1.3-0.3 2.7-0.3 3.5 0 5.3 1.9 1.7 1.8 1.7 5.6z"/></svg>