<svg version="1.2" xmlns="http://www.w3.org/2000/svg" viewBox="0 0 195 37" width="195" height="37"><style>.a{fill:#eadfce}</style><path fill-rule="evenodd" class="a" d="m96.4 36.3q-0.4 0-0.8-0.4c-0.6-0.6-16.7-15.4-16.7-25.4 0-5.6 4.5-10.1 10.1-10.1 3.4 0 6.5 1.7 8.4 4.4 1.8-2.7 5-4.4 8.4-4.4 5.5 0 10.1 4.5 10.1 10.1 0 10-17.9 24.9-18.7 25.5q-0.3 0.3-0.8 0.3zm-7.4-33.6c-4.3 0-7.7 3.5-7.7 7.8-0.1 7.8 12 19.9 15.2 23 3.5-3 17-15.2 17-23 0-4.3-3.5-7.8-7.7-7.8-3.3 0-6.2 2.1-7.3 5.1-0.4 0.9-1.9 0.9-2.2 0-1.2-3-4.1-5.1-7.3-5.1z"/><path class="a" d="m188.4 19.5h-76.5c-0.7 0-1.2-0.5-1.2-1.2 0-0.7 0.5-1.2 1.2-1.2h76.5c0.6 0 1.2 0.5 1.2 1.2 0 0.7-0.6 1.2-1.2 1.2z"/><path class="a" d="m82.6 19.5h-76.2c-0.7 0-1.2-0.5-1.2-1.2 0-0.7 0.5-1.2 1.2-1.2h76.2c0.6 0 1.2 0.5 1.2 1.2 0 0.7-0.6 1.2-1.2 1.2z"/><path class="a" d="m194.2 18.3c0-3.2-2.6-5.9-5.8-5.9-3.3 0-5.9 2.7-5.9 5.9 0 3.2 2.6 5.9 5.9 5.9 3.2 0 5.8-2.7 5.8-5.9z"/><path class="a" d="m12.3 18.3c0-3.2-2.7-5.9-5.9-5.9-3.2 0-5.9 2.7-5.9 5.9 0 3.2 2.7 5.9 5.9 5.9 3.2 0 5.9-2.7 5.9-5.9z"/></svg>