<svg version="1.2" xmlns="http://www.w3.org/2000/svg" viewBox="0 0 174 307" width="174" height="307"><style>.a{fill:#ffc100}.b{fill:#00a700}.c{fill:#007d00}.d{fill:#072277}.e{fill:#7c338e}.f{fill:#ff8111}.g{fill:#ff0589}.h{fill:#da0373}</style><path class="a" d="m38.8 76.8c0 0.8 0 1.3 0 2q0 1-0.1 1.9-0.2 1.9-0.7 3.8c-0.4 1.3-0.9 2.7-1.6 4-0.7 1.3-1.8 2.6-3.2 3.6-1.4 1-3.1 1.6-4.7 1.8-1.6 0.1-3.1 0-4.4-0.4-2.7-0.6-5.3-1.8-7.4-3.7-2.1-2-3.6-4.6-4.2-7.3-0.7-2.7-0.5-5.4 0.1-8 1.3-5.1 4.9-9.5 9.4-11.8q0.9-0.5 1.8-0.9 0.9-0.3 1.8-0.6 1.7-0.6 3.5-0.9 3.5-0.6 7.1-0.5c4.7 0.1 9.4 1 13.7 2.9 4.3 1.8 8.3 4.6 11.4 8.1 1.5 1.8 2.9 3.7 4 5.8 1.1 2 2 4.2 2.7 6.4 0.3 0.8-0.2 1.7-1 1.9-0.8 0.3-1.6-0.1-1.9-0.9h-0.1c-0.7-2-1.6-3.9-2.7-5.7q-1.6-2.7-3.7-5c-2.9-3-6.4-5.2-10.3-6.7-3.8-1.4-8-2-12.1-1.9-2.1 0-4.1 0.3-6.1 0.7-2 0.4-3.9 1-5.4 2-3.2 1.9-5.6 5-6.3 8.5-0.8 3.5 0.2 7 2.7 9 1.1 1 2.7 1.7 4.4 2 0.8 0.1 1.5 0.2 2.1 0.1 0.6-0.1 1-0.3 1.4-0.6 0.8-0.6 1.5-2 1.8-3.7q0.3-1.2 0.4-2.6 0-0.7 0-1.5c0-0.4 0-1 0-1.3-0.2-2.1 1.3-3.9 3.4-4.1 2.1-0.3 4 1.3 4.2 3.4q0 0.1 0 0.2z"/><path class="a" d="m31.2 231.3c0-0.3 0-0.8 0-1.3q0-0.7 0-1.4-0.1-1.4-0.4-2.7c-0.3-1.7-1-3-1.8-3.6-0.4-0.3-0.8-0.5-1.4-0.6-0.6-0.1-1.3-0.1-2.1 0.1-1.7 0.3-3.3 1-4.4 2-2.5 1.9-3.5 5.5-2.7 9 0.7 3.4 3.1 6.6 6.3 8.5 1.5 0.9 3.4 1.6 5.4 2 2 0.4 4 0.7 6.1 0.7 4.1 0.1 8.3-0.5 12.1-2 3.9-1.4 7.4-3.6 10.3-6.6q2.1-2.3 3.7-5c1.1-1.8 2-3.7 2.7-5.7h0.1c0.3-0.8 1.2-1.2 2-0.9 0.8 0.3 1.2 1.1 0.9 1.9-0.7 2.2-1.6 4.3-2.7 6.4-1.1 2-2.5 4-4 5.7-3.1 3.6-7.1 6.4-11.4 8.2-4.3 1.8-9 2.8-13.7 2.9q-3.6 0-7.1-0.6-1.8-0.3-3.5-0.8-0.9-0.3-1.8-0.6-0.9-0.4-1.8-0.9c-4.5-2.4-8.1-6.7-9.4-11.8-0.6-2.6-0.8-5.4-0.1-8.1 0.6-2.7 2.1-5.3 4.2-7.2 2.1-1.9 4.7-3.2 7.4-3.8 1.3-0.3 2.8-0.5 4.4-0.3 1.6 0.2 3.3 0.8 4.7 1.8 1.4 1 2.5 2.3 3.2 3.6 0.7 1.3 1.2 2.6 1.6 3.9q0.5 2 0.7 3.9 0.1 0.9 0.1 1.9c0 0.6 0 1.2 0 2-0.1 2.1-1.9 3.7-4 3.6-2.1-0.1-3.7-1.8-3.6-4q0-0.1 0-0.2z"/><path class="b" d="m79.8 75.7c0 0 27.8-16.8 18.4-44.8-9.5-28-10.1-30.8-10.1-30.8 0 0-37.7 46.1-8.3 75.6z"/><path class="c" d="m88.9 21.8c0 4.3-0.2 8.6-0.5 12.9q-0.4 6.4-1.2 12.8c-0.6 4.2-1.3 8.4-2.2 12.6q-1.3 6.3-3.3 12.5c-0.1 0.5-0.7 0.8-1.3 0.7-0.5-0.2-0.8-0.8-0.7-1.3v-0.1q1.9-6 3-12.2c0.8-4.2 1.4-8.3 1.9-12.6q0.7-6.3 1-12.6c0.2-4.2 0.3-8.5 0.2-12.6v-0.1c0-0.8 0.7-1.5 1.5-1.6 0.9 0 1.6 0.7 1.6 1.6q0 0 0 0z"/><path class="b" d="m79.8 231.1c0 0 27.8 16.9 18.4 44.9-9.5 27.9-10.1 30.8-10.1 30.8 0 0-37.7-46.2-8.3-75.7z"/><path class="c" d="m85.8 285c0.1-4.2 0-8.5-0.2-12.7q-0.3-6.3-1-12.6c-0.5-4.2-1.1-8.4-1.9-12.5q-1.1-6.3-3-12.3c-0.1-0.6 0.2-1.2 0.7-1.3 0.6-0.2 1.2 0.1 1.3 0.7q2 6.1 3.3 12.4c0.9 4.2 1.6 8.4 2.2 12.7q0.8 6.3 1.2 12.8c0.3 4.2 0.5 8.5 0.5 12.8 0 0.9-0.7 1.6-1.6 1.6-0.8 0-1.5-0.7-1.5-1.6q0 0 0 0z"/><path class="a" d="m173.1 148.2c0 0-22.2 33.3-35.5 24.3-13.6-9.3 10.7-11.8 11.4-21.5 0.7-9.8-21.1-10.5-14.9-18.8 6.3-8.4 39 16 39 16z"/><path class="d" d="m72 147.2c0 0 26.9-14 43.7-8.2 16.8 5.8 9 24.8-6.8 25.9-14.9 1-32.5-3-37.2-7z"/><path class="d" d="m71.7 158.3c0 0 27.7 12.5 33.6 29.3 5.8 16.7-14 22.3-24.6 10.6-10-11-17.8-27.3-17.6-33.5z"/><path class="d" d="m62.9 164.9c0 0 7.3 29.5-2.2 44.5-9.6 15-26.2 2.9-23.6-12.7 2.5-14.7 10.5-30.9 15.5-34.6z"/><path class="d" d="m52.2 162.1c0 0-18.6 24-36.3 25.8-17.7 1.7-18.5-18.8-4.7-26.4 13.2-7.1 30.8-10.9 36.8-9.2z"/><path class="d" d="m47.8 152c0 0-30.4 0.2-42.7-12.6-12.3-12.8 3.3-26.2 17.8-20 13.8 5.9 27.7 17.4 30 23.2z"/><path class="d" d="m53 142.2c0 0-18.9-23.7-16.5-41.3 2.4-17.6 22.6-13.6 26.7 1.6 3.9 14.5 3.4 32.5 0.4 37.9z"/><path class="d" d="m63.9 140.3c0 0 6.9-29.6 22.2-38.6 15.4-9 24.7 9.3 15.3 22-8.9 12-23.4 22.8-29.5 23.8z"/><g style="opacity:.5;mix-blend-mode:multiply"><path class="e" d="m69.4 145.5c0 0 35.7-20.9 25.5-34.2-10.2-13.3-27.6 23.5-28.7 30z"/></g><g style="opacity:.5;mix-blend-mode:multiply"><path class="e" d="m71.8 154.4c0 0 38.8 14.3 42.6-2 3.7-16.3-35.7-6.4-41.4-3z"/></g><g style="opacity:.5;mix-blend-mode:multiply"><path class="e" d="m65.7 162.7c0 0 12 39.6 27.3 32.7 15.3-6.8-16.4-32.3-22.5-34.8z"/></g><g style="opacity:.5;mix-blend-mode:multiply"><path class="e" d="m55.5 162.8c0 0-24.3 33.5-9.7 41.6 14.7 8.1 15.9-32.6 14.3-39z"/></g><g style="opacity:.5;mix-blend-mode:multiply"><path class="e" d="m49.4 155.5c0 0-41.2 3.6-37.7 20 3.5 16.3 35-9.4 38.8-14.9z"/></g><g style="opacity:.5;mix-blend-mode:multiply"><path class="e" d="m51.3 145.6c0 0-28.2-30.3-38.9-17.4-10.8 12.8 28.9 21.8 35.5 21.4z"/></g><g style="opacity:.5;mix-blend-mode:multiply"><path class="e" d="m60.2 141c0 0 6.6-40.8-10.1-41.4-16.7-0.6 0.5 36.3 4.9 41.2z"/></g><path class="a" d="m68.7 152.8v-2.1h32.1v2.1z"/><path class="a" d="m100.5 147c2.6 0 4.8 2.1 4.8 4.7 0 2.6-2.2 4.7-4.8 4.7-2.6 0-4.7-2.1-4.7-4.7 0-2.6 2.1-4.7 4.7-4.7z"/><path class="a" d="m65.4 159.2l1.6-1.3 19.7 25.3-1.7 1.3z"/><path class="a" d="m89.4 180.7c1.6 2.1 1.3 5.1-0.8 6.7-2 1.5-5 1.2-6.6-0.9-1.6-2-1.2-5 0.8-6.6 2.1-1.6 5-1.2 6.6 0.8z"/><path class="a" d="m50.4 191.5l7.8-31 2 0.5-7.8 31z"/><path class="a" d="m56 192.7c-0.7 2.5-3.2 4.1-5.7 3.4-2.6-0.6-4.1-3.2-3.4-5.7 0.6-2.5 3.2-4 5.7-3.4 2.5 0.6 4 3.2 3.4 5.7z"/><path class="a" d="m23.5 168.5l29.3-12.9 0.8 1.9-29.3 12.9z"/><path class="a" d="m26 173.7c-2.4 1-5.2-0.1-6.2-2.4-1.1-2.4 0-5.2 2.4-6.2 2.4-1.1 5.2 0 6.2 2.4 1 2.4 0 5.1-2.4 6.2z"/><path class="a" d="m24.1 135l1-1.9 28.2 15.2-1 1.9z"/><path class="a" d="m22.6 138.3c-2.3-1.2-3.2-4.1-1.9-6.4 1.2-2.2 4-3.1 6.3-1.9 2.3 1.3 3.2 4.1 1.9 6.4-1.2 2.3-4 3.2-6.3 1.9z"/><path class="a" d="m51.9 113l2.1-0.3 5.3 31.6-2 0.3z"/><path class="a" d="m48.4 113.9c-0.5-2.6 1.2-5 3.8-5.4 2.6-0.5 5 1.3 5.4 3.8 0.5 2.6-1.3 5-3.8 5.4-2.6 0.5-5-1.2-5.4-3.8z"/><path class="a" d="m66.3 146.6l18.7-26 1.7 1.2-18.7 26z"/><path class="a" d="m81.9 118.7c1.5-2.1 4.5-2.6 6.6-1.1 2.1 1.5 2.6 4.5 1.1 6.6-1.6 2.1-4.5 2.6-6.6 1-2.1-1.5-2.6-4.4-1.1-6.5z"/><path class="f" d="m63.1 165.5c7.2-1.4 11.9-8.5 10.4-15.7-1.5-7.2-8.5-11.8-15.7-10.3-7.2 1.4-11.8 8.5-10.4 15.7 1.5 7.2 8.5 11.8 15.7 10.3z"/><path class="g" d="m99.7 88.3c0 0 6.4-32.1 31.3-40.4 24.8-8.3 5.5 29.4-31.3 40.4z"/><path class="h" d="m99.7 88.3c0 0 21.5-22.8 28.9-13.8 7.3 9.1-28.9 13.8-28.9 13.8z"/><path class="h" d="m99.7 88.3c0 0 16-22.1 9.4-27-6.6-4.9-12.2 15.5-9.4 27z"/><path class="g" d="m99.7 211.5c0 0 6.4 32.2 31.3 40.5 24.8 8.2 5.5-29.4-31.3-40.5z"/><path class="h" d="m99.7 211.5c0 0 21.5 22.9 28.9 13.8 7.3-9-28.9-13.8-28.9-13.8z"/><path class="h" d="m99.7 211.5c0 0 16 22.2 9.4 27-6.6 4.9-12.2-15.4-9.4-27z"/><path class="a" d="m133.8 149.6c0 4.1 6.2 4.1 6.2 0 0-4-6.2-4-6.2 0z"/><path class="a" d="m48.2 261.2c0 4.1 6.3 4.1 6.3 0 0-4-6.3-4-6.3 0z"/><path class="a" d="m47.2 43.2c0 4.1 6.2 4.1 6.2 0 0-4-6.2-4-6.2 0z"/></svg>